# xmcd
#
# Track frame offsets: 
#        150
#        11995
#        28742
#        47287
#        71272
#
# Disc length: 1169 seconds
#
# Revision: 2
# Processed by: cddbd v1.5.2PL0 Copyright (c) Steve Scherf et al.
# Submitted via: ExactAudioCopy v0.95b4
#
DISCID=36048f05
DTITLE=Verschiedene - Starlight Express - New Songs
DYEAR=2003
DGENRE=Musical
TTITLE0=Verschiedene - Crazy
TTITLE1=Verschiedene - Starlight Express
TTITLE2=Verschiedene - Allein im Licht der Sterne
TTITLE3=Verschiedene - Mega Mix
TTITLE4=Verschiedene - Starlight Express (Boy Band Version) Bonus Tite
TTITLE4=l
EXTD=YEAR: 2003
EXTT0=
EXTT1=
EXTT2=
EXTT3=
EXTT4=
PLAYORDER=
